<?xml version="1.0" encoding="utf-8"?>
<!-- Generator: Adobe Illustrator 17.1.0, SVG Export Plug-In . SVG Version: 6.00 Build 0)  -->
<!DOCTYPE svg PUBLIC "-//W3C//DTD SVG 1.1 Tiny//EN" "http://www.w3.org/Graphics/SVG/1.1/DTD/svg11-tiny.dtd">
<svg version="1.1" baseProfile="tiny" xmlns="http://www.w3.org/2000/svg" xmlns:xlink="http://www.w3.org/1999/xlink" x="0px"
	 y="0px" viewBox="0 0 156.3 38.2" xml:space="preserve">
<g id="gallery">
</g>
<g id="home">
</g>
<g id="mobile_slides">
	<g>
		<g>
			<path fill="#FFFFFF" d="M145.3,35.2H10.5c-4.2,0-7.7-3.4-7.7-7.7V10.7C2.8,6.5,6.3,3,10.5,3h134.8c4.2,0,7.7,3.4,7.7,7.7v16.9
				C152.9,31.8,149.5,35.2,145.3,35.2z"/>
			<path fill="#D4D882" d="M145.3,36.2H10.5c-4.8,0-8.7-3.9-8.7-8.7V10.7C1.8,5.9,5.7,2,10.5,2h134.8c4.8,0,8.7,3.9,8.7,8.7v16.9
				C153.9,32.3,150,36.2,145.3,36.2z M10.5,4c-3.7,0-6.7,3-6.7,6.7v16.9c0,3.7,3,6.7,6.7,6.7h134.8c3.7,0,6.7-3,6.7-6.7V10.7
				c0-3.7-3-6.7-6.7-6.7H10.5z"/>
		</g>
		<g>
			<path fill="#404040" d="M50.7,15.1h1.1v7.5h4.7v1h-5.8V15.1z"/>
			<path fill="#404040" d="M62.9,20.9c0,0.8-0.3,1.5-0.9,2c-0.5,0.5-1.3,0.8-2,0.8s-1.5-0.3-2-0.8c-0.5-0.6-0.8-1.3-0.8-2
				s0.3-1.5,0.8-2c0.6-0.5,1.3-0.8,2-0.8s1.5,0.3,2,0.8C62.6,19.4,62.9,20.2,62.9,20.9z M61.8,20.9c0-1-0.8-1.8-1.8-1.8
				c-1,0-1.8,0.8-1.8,1.8s0.8,1.8,1.8,1.8C61,22.8,61.8,21.9,61.8,20.9z"/>
			<path fill="#404040" d="M68.4,18.2h1v5.5h-1V23c-0.5,0.4-1.2,0.8-1.8,0.8c-0.8,0-1.5-0.3-2-0.8c-0.5-0.6-0.8-1.3-0.8-2
				s0.3-1.5,0.8-2c0.6-0.5,1.3-0.8,2-0.8c0.7,0,1.3,0.3,1.8,0.8V18.2z M68.4,20.9c0-1-0.8-1.9-1.8-1.9s-1.8,0.8-1.8,1.9
				s0.8,1.9,1.8,1.9S68.4,21.9,68.4,20.9z"/>
			<path fill="#404040" d="M75.2,14.9h1v8.8h-1V23c-0.5,0.4-1.2,0.8-1.8,0.8c-0.8,0-1.5-0.3-2-0.8c-0.5-0.6-0.8-1.3-0.8-2
				s0.3-1.5,0.8-2c0.6-0.5,1.3-0.8,2-0.8c0.7,0,1.3,0.3,1.8,0.8V14.9z M75.2,20.9c0-1-0.8-1.9-1.8-1.9s-1.8,0.8-1.8,1.9
				s0.8,1.9,1.8,1.9S75.2,21.9,75.2,20.9z"/>
			<path fill="#404040" d="M89.8,20.7v3h-1v-3c0-0.9-0.7-1.6-1.6-1.6c-0.9,0-1.6,0.7-1.6,1.6v3h-1v-3c0-0.9-0.7-1.6-1.6-1.6
				c-0.9,0-1.6,0.7-1.6,1.6v3h-1v-5.5h1v0.5c0.5-0.4,1-0.6,1.6-0.6c0.7,0,1.4,0.3,1.9,0.8c0.1,0.1,0.2,0.2,0.3,0.3
				c0.1-0.1,0.2-0.2,0.3-0.3c0.5-0.5,1.2-0.8,1.9-0.8s1.4,0.3,1.9,0.8C89.5,19.3,89.8,20,89.8,20.7z"/>
			<path fill="#404040" d="M96.5,20.9c0,0.8-0.3,1.5-0.9,2c-0.5,0.5-1.3,0.8-2,0.8s-1.5-0.3-2-0.8c-0.5-0.6-0.8-1.3-0.8-2
				s0.3-1.5,0.8-2c0.6-0.5,1.3-0.8,2-0.8s1.5,0.3,2,0.8C96.2,19.4,96.5,20.2,96.5,20.9z M95.4,20.9c0-1-0.8-1.8-1.8-1.8
				c-1,0-1.8,0.8-1.8,1.8s0.8,1.8,1.8,1.8C94.6,22.8,95.4,21.9,95.4,20.9z"/>
			<path fill="#404040" d="M98.6,18.7c0.3-0.4,1.4-0.7,2-0.7l-0.3,1c-1,0-1.8,0.7-1.8,1.7v2.9h-1v-5.5h1V18.7z"/>
			<path fill="#404040" d="M106.1,21.2h-4.2v0c0.1,0.9,0.8,1.6,1.6,1.6c0.5,0,1-0.2,1.3-0.6l0.9,0.5c-0.2,0.2-0.5,0.4-0.7,0.6
				c-0.4,0.3-0.9,0.4-1.5,0.4c-0.7,0-1.4-0.3-1.9-0.8c-0.4-0.5-0.7-1.1-0.7-1.7c0-0.1,0-0.2,0-0.3c0-0.2,0-0.4,0.1-0.6
				c0.1-0.5,0.3-1,0.7-1.3c0.5-0.5,1.2-0.8,1.9-0.8c0.7,0,1.4,0.3,1.9,0.8c0.3,0.4,0.6,0.8,0.7,1.3
				C106.1,20.8,106.1,21.1,106.1,21.2z M105,20.3L105,20.3c-0.3-0.7-0.9-1.2-1.5-1.2c-0.7,0-1.3,0.5-1.5,1.2l0,0H105z"/>
		</g>
	</g>
</g>
<g id="navigation">
</g>
</svg>
